<svg xmlns="http://www.w3.org/2000/svg" width="50" height="61" viewBox="0 0 50 61">
  <g id="Group_1" data-name="Group 1" transform="translate(-1512 -292)">
    <ellipse id="Oval" cx="19" cy="3" rx="19" ry="3" transform="translate(1518 347)" fill="rgba(116,116,116,0.37)"/>
    <circle id="Oval-2" data-name="Oval" cx="25" cy="25" r="25" transform="translate(1512 292)" fill="#057aff"/>
    <g id="noun_motel_1439776_000000" transform="translate(1526 311)">
      <path id="Shape" d="M21.8,13H19.385a.178.178,0,0,1-.171-.161V11.381a1.039,1.039,0,0,0-1.051-1H3.809a1.04,1.04,0,0,0-1.052,1v1.457a.177.177,0,0,1-.17.161H.17A.18.18,0,0,1,0,12.839V.647A.574.574,0,0,1,.2.189.638.638,0,0,1,.682,0H2.047A.638.638,0,0,1,2.53.189a.574.574,0,0,1,.2.458V6.8h.086a.966.966,0,0,0,.289.686,1.066,1.066,0,0,0,.762.312H21.29a.641.641,0,0,1,.483.188.575.575,0,0,1,.2.459v4.4A.178.178,0,0,1,21.8,13ZM6.272,7.133A2.825,2.825,0,0,1,4.093,6.15a2.369,2.369,0,0,1-.569-1.3A2.5,2.5,0,0,1,4.548,2.508a2.636,2.636,0,0,1,1.364-.539c.1-.008.2-.013.294-.013a2.827,2.827,0,0,1,2.179.983,2.368,2.368,0,0,1,.568,1.3A2.576,2.576,0,0,1,7.93,6.581a2.39,2.39,0,0,1-1.364.539C6.463,7.128,6.365,7.133,6.272,7.133Zm15.264-.01-.048,0H10.545a.86.86,0,0,1-.881-.836V3.236a.574.574,0,0,1,.2-.458.638.638,0,0,1,.483-.189h7.532a4.1,4.1,0,0,1,2.587.863A4.048,4.048,0,0,1,22,6.662.457.457,0,0,1,21.536,7.122Z" fill="#fff"/>
    </g>
  </g>
</svg>
